<mxfile host="app.diagrams.net" modified="2023-05-04T03:08:17.687Z" agent="Mozilla/5.0 (Macintosh; Intel Mac OS X 10.15; rv:109.0) Gecko/20100101 Firefox/111.0" etag="i5K5DftLnTF27J_Kuhsx" version="21.2.3" type="github">
  <diagram name="Page-1" id="fpYvHtxNB4w4uJ5ZzWT5">
    <mxGraphModel dx="2284" dy="794" grid="1" gridSize="10" guides="1" tooltips="1" connect="1" arrows="1" fold="1" page="1" pageScale="1" pageWidth="850" pageHeight="1100" math="0" shadow="0">
      <root>
        <mxCell id="0" />
        <mxCell id="1" parent="0" />
        <mxCell id="b7ro-gV5mYTYyai0SoZE-3" value="" style="edgeStyle=orthogonalEdgeStyle;rounded=0;orthogonalLoop=1;jettySize=auto;html=1;" parent="1" source="b7ro-gV5mYTYyai0SoZE-1" target="b7ro-gV5mYTYyai0SoZE-2" edge="1">
          <mxGeometry relative="1" as="geometry" />
        </mxCell>
        <mxCell id="b7ro-gV5mYTYyai0SoZE-4" value="&lt;div&gt;1 -&amp;gt; n&lt;/div&gt;" style="edgeLabel;html=1;align=center;verticalAlign=middle;resizable=0;points=[];" parent="b7ro-gV5mYTYyai0SoZE-3" vertex="1" connectable="0">
          <mxGeometry x="-0.525" y="2" relative="1" as="geometry">
            <mxPoint x="21" y="2" as="offset" />
          </mxGeometry>
        </mxCell>
        <mxCell id="b7ro-gV5mYTYyai0SoZE-6" style="edgeStyle=orthogonalEdgeStyle;rounded=0;orthogonalLoop=1;jettySize=auto;html=1;entryX=0.5;entryY=0;entryDx=0;entryDy=0;" parent="1" source="b7ro-gV5mYTYyai0SoZE-1" target="b7ro-gV5mYTYyai0SoZE-5" edge="1">
          <mxGeometry relative="1" as="geometry" />
        </mxCell>
        <mxCell id="b7ro-gV5mYTYyai0SoZE-7" value="&lt;div&gt;1 -&amp;gt; n&lt;/div&gt;" style="edgeLabel;html=1;align=center;verticalAlign=middle;resizable=0;points=[];rotation=90;" parent="b7ro-gV5mYTYyai0SoZE-6" vertex="1" connectable="0">
          <mxGeometry x="-0.32" y="3" relative="1" as="geometry">
            <mxPoint x="-3" y="3" as="offset" />
          </mxGeometry>
        </mxCell>
        <mxCell id="b7ro-gV5mYTYyai0SoZE-21" style="edgeStyle=orthogonalEdgeStyle;rounded=0;orthogonalLoop=1;jettySize=auto;html=1;" parent="1" source="b7ro-gV5mYTYyai0SoZE-1" target="b7ro-gV5mYTYyai0SoZE-18" edge="1">
          <mxGeometry relative="1" as="geometry" />
        </mxCell>
        <mxCell id="b7ro-gV5mYTYyai0SoZE-1" value="认账批次" style="rounded=0;whiteSpace=wrap;html=1;fillColor=#f8cecc;strokeColor=#b85450;" parent="1" vertex="1">
          <mxGeometry x="260" y="290" width="120" height="60" as="geometry" />
        </mxCell>
        <mxCell id="b7ro-gV5mYTYyai0SoZE-2" value="业务订单" style="whiteSpace=wrap;html=1;rounded=0;fillColor=#f5f5f5;fontColor=#333333;strokeColor=#666666;" parent="1" vertex="1">
          <mxGeometry x="470" y="290" width="100" height="60" as="geometry" />
        </mxCell>
        <mxCell id="b7ro-gV5mYTYyai0SoZE-15" value="" style="edgeStyle=orthogonalEdgeStyle;rounded=0;orthogonalLoop=1;jettySize=auto;html=1;" parent="1" source="b7ro-gV5mYTYyai0SoZE-5" target="b7ro-gV5mYTYyai0SoZE-14" edge="1">
          <mxGeometry relative="1" as="geometry" />
        </mxCell>
        <mxCell id="b7ro-gV5mYTYyai0SoZE-17" value="&lt;div&gt;1 -&amp;gt; n&lt;/div&gt;" style="edgeLabel;html=1;align=center;verticalAlign=middle;resizable=0;points=[];" parent="b7ro-gV5mYTYyai0SoZE-15" vertex="1" connectable="0">
          <mxGeometry x="0.2" y="-3" relative="1" as="geometry">
            <mxPoint y="-3" as="offset" />
          </mxGeometry>
        </mxCell>
        <mxCell id="b7ro-gV5mYTYyai0SoZE-5" value="汇款记录" style="whiteSpace=wrap;html=1;rounded=0;fillColor=#f5f5f5;fontColor=#333333;strokeColor=#666666;" parent="1" vertex="1">
          <mxGeometry x="270" y="500" width="100" height="60" as="geometry" />
        </mxCell>
        <mxCell id="b7ro-gV5mYTYyai0SoZE-14" value="中台认账记录" style="whiteSpace=wrap;html=1;fillColor=#dae8fc;strokeColor=#6c8ebf;rounded=0;" parent="1" vertex="1">
          <mxGeometry x="500" y="500" width="120" height="60" as="geometry" />
        </mxCell>
        <mxCell id="b7ro-gV5mYTYyai0SoZE-23" style="edgeStyle=orthogonalEdgeStyle;rounded=0;orthogonalLoop=1;jettySize=auto;html=1;" parent="1" source="b7ro-gV5mYTYyai0SoZE-18" target="b7ro-gV5mYTYyai0SoZE-22" edge="1">
          <mxGeometry relative="1" as="geometry" />
        </mxCell>
        <mxCell id="b7ro-gV5mYTYyai0SoZE-18" value="认账 Service" style="shape=hexagon;perimeter=hexagonPerimeter2;whiteSpace=wrap;html=1;fixedSize=1;rounded=0;" parent="1" vertex="1">
          <mxGeometry x="260" y="120" width="120" height="40" as="geometry" />
        </mxCell>
        <mxCell id="b7ro-gV5mYTYyai0SoZE-22" value="&lt;div&gt;- 创建批次&lt;br&gt;- 判断多个订单是否可以进行批量认账&lt;br&gt;&lt;/div&gt;&lt;div&gt;- 添加订单 (只有 未绑定 状态订单能绑定到当前批次)&lt;br&gt;&lt;div&gt;- 未提交-删除 (删除绑定关系)&lt;/div&gt;- 已提交-删除 (删除绑定、调用中台删除)&lt;/div&gt;&lt;div&gt;- 应收金额汇总 (添加、删除 时候都需要重新计算)&lt;/div&gt;&lt;div&gt;&lt;br&gt;&lt;/div&gt;" style="shape=note;whiteSpace=wrap;html=1;backgroundOutline=1;darkOpacity=0.05;align=left;verticalAlign=top;" parent="1" vertex="1">
          <mxGeometry x="-240" y="85" width="365" height="195" as="geometry" />
        </mxCell>
        <mxCell id="o6qvqLgRWWO_v4bCrPXF-3" value="&lt;h1&gt;订单状态&lt;br&gt;&lt;/h1&gt;&lt;p&gt;未绑定&lt;br&gt;已绑定&lt;br&gt;支付中&lt;br&gt;已支付&lt;br&gt;&lt;/p&gt;" style="text;html=1;strokeColor=none;fillColor=none;spacing=5;spacingTop=-20;whiteSpace=wrap;overflow=hidden;rounded=0;" vertex="1" parent="1">
          <mxGeometry x="-670" y="40" width="190" height="170" as="geometry" />
        </mxCell>
        <mxCell id="o6qvqLgRWWO_v4bCrPXF-4" value="&lt;h1&gt;汇款记录状态&lt;br&gt;&lt;/h1&gt;&lt;p&gt;未提交&lt;br&gt;已提交&lt;br&gt;删除&lt;br&gt;撤销&lt;br&gt;驳回&lt;br&gt;部分认账&lt;br&gt;完全认账&lt;br&gt;&lt;br&gt;&lt;/p&gt;" style="text;html=1;strokeColor=none;fillColor=none;spacing=5;spacingTop=-20;whiteSpace=wrap;overflow=hidden;rounded=0;" vertex="1" parent="1">
          <mxGeometry x="-670" y="190" width="200" height="170" as="geometry" />
        </mxCell>
      </root>
    </mxGraphModel>
  </diagram>
</mxfile>
